<svg xmlns="http://www.w3.org/2000/svg" width="83" height="83" fill="none" viewBox="0 0 83 83">
    <path fill="#fff" d="M47.4 28.78H35.63c-.908 0-1.786.146-2.606.41v-8.872a2.811 2.811 0 0 0-5.62 0V38.09c0 .293.058.586.116.85.674 3.864 4.07 6.791 8.11 6.791H47.4c4.537 0 8.255-3.688 8.255-8.256v-.439c0-4.538-3.718-8.256-8.256-8.256zm2.605 8.694a2.611 2.611 0 0 1-2.606 2.606H35.63a2.611 2.611 0 0 1-2.606-2.606v-.439a2.611 2.611 0 0 1 2.606-2.605H47.4a2.611 2.611 0 0 1 2.605 2.605v.44zM15.165 56.065h-3.747c-.322 0-.644.059-.937.176v-2.986a.925.925 0 0 0-.937-.937.925.925 0 0 0-.937.937v5.65a2.811 2.811 0 0 0 2.811 2.81h3.777a2.811 2.811 0 0 0 2.81-2.81 2.843 2.843 0 0 0-2.84-2.84zm0 3.777h-3.747a.925.925 0 0 1-.937-.937c0-.527.41-.937.937-.937H15.195c.527 0 .937.41.937.937 0 .527-.44.937-.967.937zM26.466 56.065H22.72a2.811 2.811 0 0 0 0 5.622h3.777a2.811 2.811 0 0 0 2.81-2.811c0-1.523-1.288-2.81-2.84-2.81zm0 3.777H22.69a.925.925 0 0 1-.937-.937c0-.527.41-.937.937-.937H26.466c.527 0 .937.41.937.937 0 .527-.41.937-.937.937zM39.641 59.842H34.02a.925.925 0 0 1-.937-.937c0-.527.41-.937.937-.937h5.621a.953.953 0 0 0 .937-.937.925.925 0 0 0-.937-.936H33.99a2.811 2.811 0 0 0 0 5.62h5.651c.527 0 .937-.41.937-.936 0-.264-.088-.498-.264-.644a.953.953 0 0 0-.673-.293zM51.879 58.964v-.059a2.811 2.811 0 0 0-2.81-2.81H45.29c-.322 0-.644.058-.936.175v-2.986a.925.925 0 0 0-.937-.937.925.925 0 0 0-.937.937v7.524c0 .527.41.937.937.937a.953.953 0 0 0 .937-.966v-1.874c0-.527.41-.937.936-.937h3.777c.527 0 .937.41.937.937V60.78a.953.953 0 0 0 .966.937c.527 0 .937-.41.937-.937-.03 0-.03-1.405-.03-1.815zM73.514 56.065a.953.953 0 0 0-.936.966v1.874c0 .527-.41.937-.937.937h-3.777a.925.925 0 0 1-.937-.937V57.09v-.059a.953.953 0 0 0-.966-.936.925.925 0 0 0-.937.936h-.03v1.903a2.811 2.811 0 0 0 2.811 2.811h3.777c.322 0 .644-.059.937-.176v2.987c0 .527.41.936.937.936.527 0 .937-.41.937-.936V57.03c.088-.527-.352-.966-.879-.966zM63.18 57.031c-.03-.527-.44-.936-.967-.936-.497 0-.878.38-.937.849v.175c-.029.469-.439.85-.936.85H55.626v-4.714a.925.925 0 0 0-.937-.937.925.925 0 0 0-.937.937v7.524c0 .527.41.937.937.937.527 0 .937-.41.937-.937v-.937h4.714c.468 0 .849.322.907.761 0 .059-.03.117-.03.176 0 .058 0 .117.03.175.088.44.469.762.937.762.527 0 .937-.41.937-.937h.03c0-.732-.264-1.376-.733-1.874a2.634 2.634 0 0 0 .761-1.874zM76.354 56.153a1.962 1.962 0 1 1 0-3.923 1.962 1.962 0 0 1 0 3.923zm0-3.63c-.907 0-1.669.732-1.669 1.64 0 .907.732 1.668 1.67 1.668.907 0 1.639-.732 1.639-1.669.029-.878-.732-1.64-1.64-1.64z"/>
    <path fill="#fff" d="M77.29 55.1h-.585l-.497-.674h-.235v.673h-.468v-1.874h.82c.117 0 .205 0 .293.03.087 0 .146.029.234.087.058.03.117.088.175.176.03.059.059.147.059.264 0 .146-.03.263-.088.322a.637.637 0 0 1-.263.205l.556.79zm-.731-1.289c0-.059 0-.088-.03-.117l-.087-.088c-.03 0-.059-.03-.117-.03H76.003v.498h.351c.059 0 .088-.029.117-.058l.088-.088c-.03-.03 0-.058 0-.117z"/>
</svg>
