<svg xmlns="http://www.w3.org/2000/svg" width="18" height="18" fill="none" viewBox="0 0 18 18">
    <g clip-path="url(#a)">
        <path fill="#fff" d="M17.537 12.914L15.3 10.738c-.617-.6-1.621-.6-2.238 0l-1.017.99a1.224 1.224 0 0 1-1.695 0L5.94 7.434a1.143 1.143 0 0 1 0-1.649l1.017-.99a1.509 1.509 0 0 0 0-2.176L4.72.45C4.104-.15 3.1-.15 2.485.45l-.816.786a5.45 5.45 0 0 0 0 7.85l6.985 6.797c2.23 2.17 5.84 2.17 8.07 0l.813-.791c.617-.6.617-1.576 0-2.177zM3.23 1.176c.205-.2.54-.2.746 0l2.237 2.17c.207.2.207.525 0 .725l-.373.363-2.981-2.9.37-.358zM9.4 15.157L2.415 8.36a4.421 4.421 0 0 1-.29-6.088l2.972 2.892a2.147 2.147 0 0 0 .098 2.998l4.409 4.292a2.297 2.297 0 0 0 3.081.095l2.973 2.892a4.723 4.723 0 0 1-6.258-.283zm7.391-.791l-.372.362-2.984-2.902.373-.363c.206-.2.54-.2.746 0l2.237 2.177c.206.2.206.525 0 .726z"/>
    </g>
    <defs>
        <clipPath id="a">
            <path fill="#fff" d="M0 0h18v17.509H0z"/>
        </clipPath>
    </defs>
</svg>
