<svg xmlns="http://www.w3.org/2000/svg" width="22" height="22" fill="none" viewBox="0 0 22 22">
    <g fill="#DE5443" clip-path="url(#a)">
        <path d="M18.777 3.224a10.992 10.992 0 0 0-15.553 0 10.991 10.991 0 0 0 0 15.553 10.991 10.991 0 0 0 15.553 0 10.992 10.992 0 0 0 0-15.553zM11 20.192c-5.067 0-9.19-4.124-9.19-9.191C1.81 5.933 5.933 1.81 11 1.81c5.068 0 9.191 4.123 9.191 9.19 0 5.069-4.123 9.192-9.19 9.192z"/>
        <path d="M12.376 5.508H9.165a.903.903 0 0 0-.904.904v3.685H7.33a.903.903 0 1 0 0 1.806h.932v.947H7.33a.903.903 0 1 0 0 1.806h.932v.932a.903.903 0 1 0 1.807 0v-.932h1.85a.903.903 0 1 0 0-1.806h-1.85v-.947h2.308a3.201 3.201 0 0 0 3.198-3.197 3.201 3.201 0 0 0-3.198-3.198zm0 4.589h-2.308V7.315h2.308c.767 0 1.391.624 1.391 1.39 0 .768-.624 1.392-1.39 1.392z"/>
    </g>
    <defs>
        <clipPath id="a">
            <path fill="#fff" d="M0 0h22v22H0z"/>
        </clipPath>
    </defs>
</svg>
