<svg xmlns="http://www.w3.org/2000/svg" width="50" height="50" fill="none" viewBox="0 0 50 50">
    <path fill="#28ABE2" d="M42.678 7.322C37.956 2.6 31.678 0 25 0 18.322 0 12.044 2.6 7.322 7.322A24.837 24.837 0 0 0 0 25c0 6.678 2.6 12.956 7.322 17.678A24.836 24.836 0 0 0 25 50c6.678 0 12.956-2.6 17.678-7.322A24.836 24.836 0 0 0 50 25c0-6.678-2.6-12.956-7.322-17.678zM25 48.047C12.292 48.047 1.953 37.708 1.953 25S12.292 1.953 25 1.953 48.047 12.292 48.047 25 37.708 48.047 25 48.047z"/>
    <path fill="#28ABE2" d="M45.713 20.992A21.073 21.073 0 0 0 33.375 5.635a.977.977 0 0 0-.776 1.792 19.12 19.12 0 0 1 11.196 13.934.977.977 0 0 0 1.918-.37zM29.534 4.395l-.025-.006a.976.976 0 1 0-.412 1.91l.012.002a.977.977 0 1 0 .425-1.906zM17.622 42.667A19.09 19.09 0 0 1 6.205 28.64a.976.976 0 1 0-1.918.369 21.094 21.094 0 0 0 4.388 9.35 21.215 21.215 0 0 0 8.193 6.11.973.973 0 0 0 1.278-.524.977.977 0 0 0-.524-1.278zM20.905 43.702l-.06-.013a.977.977 0 0 0-.424 1.906l.068.015a.977.977 0 0 0 .416-1.908zM44.864 28.349a.977.977 0 0 0-1.162.746 19.091 19.091 0 0 1-15.063 14.7.977.977 0 1 0 .37 1.918 20.997 20.997 0 0 0 10.73-5.624 21.009 21.009 0 0 0 5.87-10.578.977.977 0 0 0-.745-1.162zM22.135 5.061a.976.976 0 0 0-1.143-.774A20.997 20.997 0 0 0 10.26 9.91a21.008 21.008 0 0 0-5.87 10.578.977.977 0 0 0 1.908.416 19.09 19.09 0 0 1 15.063-14.7.977.977 0 0 0 .774-1.144zM25 21.68c-1.83 0-3.32 1.49-3.32 3.32 0 1.83 1.49 3.32 3.32 3.32 1.83 0 3.32-1.49 3.32-3.32 0-1.83-1.49-3.32-3.32-3.32zm0 4.687A1.369 1.369 0 0 1 23.633 25c0-.754.613-1.367 1.367-1.367s1.367.613 1.367 1.367-.613 1.367-1.367 1.367zM25.015 3.906a.977.977 0 0 0-.977.977V7.07a.977.977 0 0 0 1.953 0V4.883a.977.977 0 0 0-.976-.977zM24.985 41.256a.977.977 0 0 0-.976.977v2.884a.977.977 0 0 0 1.953 0v-2.884a.977.977 0 0 0-.977-.977zM45.117 24.038h-2.636a.977.977 0 0 0 0 1.953h2.636a.977.977 0 0 0 0-1.953zM7.715 24.009H4.883a.977.977 0 0 0 0 1.953h2.832a.977.977 0 0 0 0-1.953z"/>
    <path fill="#28ABE2" d="M22.656 24.023h-4.46a.977.977 0 0 0 0 1.954h4.46a.977.977 0 0 0 0-1.954zM25 12.533a.977.977 0 0 0-.977.976v9.147a.977.977 0 0 0 1.954 0V13.51a.977.977 0 0 0-.977-.976z"/>
</svg>
